<svg xmlns="http://www.w3.org/2000/svg" viewBox="0 0 800 600" class="w-full h-full">
  <defs>
    <linearGradient id="grad1" x1="0%" y1="0%" x2="100%" y2="100%">
      <stop offset="0%" style="stop-color:#667eea;stop-opacity:1" />
      <stop offset="100%" style="stop-color:#764ba2;stop-opacity:1" />
    </linearGradient>
  </defs>
  <rect width="800" height="600" fill="#1a1a2e"/>
  <rect x="20" y="20" width="760" height="60" rx="8" fill="#16213e"/>
  <rect x="40" y="40" width="120" height="20" rx="4" fill="#0f3460"/>
  <rect x="180" y="40" width="80" height="20" rx="4" fill="#0f3460"/>
  <rect x="280" y="40" width="80" height="20" rx="4" fill="#0f3460"/>
  <rect x="680" y="40" width="80" height="20" rx="4" fill="#667eea"/>
  
  <rect x="20" y="100" width="360" height="200" rx="8" fill="#16213e"/>
  <rect x="40" y="120" width="320" height="30" rx="4" fill="#0f3460"/>
  <rect x="40" y="170" width="100" height="100" rx="4" fill="url(#grad1)"/>
  <rect x="160" y="170" width="100" height="100" rx="4" fill="#0f3460"/>
  <rect x="280" y="170" width="80" height="100" rx="4" fill="#0f3460"/>
  
  <rect x="400" y="100" width="380" height="200" rx="8" fill="#16213e"/>
  <rect x="420" y="120" width="340" height="30" rx="4" fill="#0f3460"/>
  <rect x="420" y="170" width="340" height="20" rx="4" fill="#0f3460"/>
  <rect x="420" y="210" width="340" height="20" rx="4" fill="#0f3460"/>
  <rect x="420" y="250" width="240" height="20" rx="4" fill="#0f3460"/>
  
  <rect x="20" y="320" width="760" height="260" rx="8" fill="#16213e"/>
  <rect x="40" y="340" width="720" height="30" rx="4" fill="#0f3460"/>
  <rect x="40" y="390" width="150" height="150" rx="4" fill="#0f3460"/>
  <rect x="210" y="390" width="150" height="150" rx="4" fill="#0f3460"/>
  <rect x="380" y="390" width="150" height="150" rx="4" fill="#0f3460"/>
  <rect x="550" y="390" width="210" height="150" rx="4" fill="url(#grad1)"/>
</svg>

