<svg xmlns="http://www.w3.org/2000/svg" viewBox="0 0 1000 700" class="w-full h-full">
  <rect width="1000" height="700" fill="#1a1a2e"/>
  
  <rect x="50" y="50" width="150" height="100" rx="8" fill="#16213e" stroke="#667eea" stroke-width="2"/>
  <text x="125" y="110" font-family="Arial" font-size="12" fill="#667eea" text-anchor="middle" font-weight="bold">Load Image</text>
  
  <rect x="250" y="50" width="150" height="100" rx="8" fill="#16213e" stroke="#667eea" stroke-width="2"/>
  <text x="325" y="110" font-family="Arial" font-size="12" fill="#667eea" text-anchor="middle" font-weight="bold">Preprocessor</text>
  
  <rect x="450" y="50" width="150" height="100" rx="8" fill="#16213e" stroke="#48bb78" stroke-width="2"/>
  <text x="525" y="110" font-family="Arial" font-size="12" fill="#48bb78" text-anchor="middle" font-weight="bold">ControlNet</text>
  
  <rect x="650" y="50" width="150" height="100" rx="8" fill="#16213e" stroke="#ed8936" stroke-width="2"/>
  <text x="725" y="110" font-family="Arial" font-size="12" fill="#ed8936" text-anchor="middle" font-weight="bold">Stable Diffusion</text>
  
  <line x1="200" y1="100" x2="250" y2="100" stroke="#667eea" stroke-width="2"/>
  <line x1="400" y1="100" x2="450" y2="100" stroke="#667eea" stroke-width="2"/>
  <line x1="600" y1="100" x2="650" y2="100" stroke="#667eea" stroke-width="2"/>
  
  <rect x="200" y="200" width="150" height="100" rx="8" fill="#16213e" stroke="#9f7aea" stroke-width="2"/>
  <text x="275" y="260" font-family="Arial" font-size="12" fill="#9f7aea" text-anchor="middle" font-weight="bold">Upscaler</text>
  
  <rect x="400" y="200" width="150" height="100" rx="8" fill="#16213e" stroke="#38b2ac" stroke-width="2"/>
  <text x="475" y="260" font-family="Arial" font-size="12" fill="#38b2ac" text-anchor="middle" font-weight="bold">Post-Process</text>
  
  <rect x="600" y="200" width="150" height="100" rx="8" fill="#16213e" stroke="#e53e3e" stroke-width="2"/>
  <text x="675" y="260" font-family="Arial" font-size="12" fill="#e53e3e" text-anchor="middle" font-weight="bold">Save Image</text>
  
  <line x1="275" y1="200" x2="275" y2="200" stroke="#667eea" stroke-width="2"/>
  <line x1="475" y1="200" x2="475" y2="200" stroke="#667eea" stroke-width="2"/>
  <line x1="675" y1="200" x2="675" y2="200" stroke="#667eea" stroke-width="2"/>
  
  <rect x="50" y="350" width="200" height="150" rx="8" fill="#0f3460" stroke="#667eea" stroke-width="2"/>
  <text x="150" y="380" font-family="Arial" font-size="14" fill="#667eea" text-anchor="middle" font-weight="bold">Batch Processing</text>
  <rect x="70" y="400" width="160" height="20" rx="4" fill="#16213e"/>
  <rect x="70" y="430" width="160" height="20" rx="4" fill="#16213e"/>
  <rect x="70" y="460" width="160" height="20" rx="4" fill="#16213e"/>
  
  <rect x="300" y="350" width="200" height="150" rx="8" fill="#0f3460" stroke="#48bb78" stroke-width="2"/>
  <text x="400" y="380" font-family="Arial" font-size="14" fill="#48bb78" text-anchor="middle" font-weight="bold">Custom Nodes</text>
  <circle cx="350" cy="420" r="15" fill="#48bb78"/>
  <circle cx="400" cy="420" r="15" fill="#48bb78"/>
  <circle cx="450" cy="420" r="15" fill="#48bb78"/>
  <rect x="320" y="450" width="160" height="30" rx="4" fill="#16213e"/>
  
  <rect x="550" y="350" width="200" height="150" rx="8" fill="#0f3460" stroke="#ed8936" stroke-width="2"/>
  <text x="650" y="380" font-family="Arial" font-size="14" fill="#ed8936" text-anchor="middle" font-weight="bold">Output Queue</text>
  <rect x="570" y="400" width="160" height="25" rx="4" fill="#16213e"/>
  <rect x="570" y="435" width="160" height="25" rx="4" fill="#16213e"/>
  <rect x="570" y="470" width="160" height="25" rx="4" fill="#16213e"/>
</svg>

