<svg xmlns="http://www.w3.org/2000/svg" viewBox="0 0 400 800" class="w-full h-full">
  <defs>
    <linearGradient id="mobileGrad" x1="0%" y1="0%" x2="100%" y2="100%">
      <stop offset="0%" style="stop-color:#f093fb;stop-opacity:1" />
      <stop offset="100%" style="stop-color:#f5576c;stop-opacity:1" />
    </linearGradient>
  </defs>
  <rect width="400" height="800" rx="40" fill="#0a0a0a" stroke="#333" stroke-width="4"/>
  <rect x="20" y="60" width="360" height="80" rx="20" fill="#1a1a1a"/>
  <rect x="40" y="80" width="120" height="20" rx="4" fill="#333"/>
  <rect x="240" y="80" width="120" height="20" rx="4" fill="#333"/>
  
  <rect x="20" y="160" width="360" height="200" rx="20" fill="url(#mobileGrad)"/>
  <circle cx="200" cy="240" r="40" fill="white" opacity="0.3"/>
  <rect x="60" y="300" width="280" height="40" rx="8" fill="white" opacity="0.2"/>
  
  <rect x="20" y="380" width="360" height="100" rx="12" fill="#1a1a1a"/>
  <rect x="40" y="400" width="320" height="20" rx="4" fill="#333"/>
  <rect x="40" y="430" width="240" height="20" rx="4" fill="#333"/>
  <rect x="40" y="460" width="200" height="20" rx="4" fill="#333"/>
  
  <rect x="20" y="500" width="360" height="100" rx="12" fill="#1a1a1a"/>
  <rect x="40" y="520" width="320" height="20" rx="4" fill="#333"/>
  <rect x="40" y="550" width="280" height="20" rx="4" fill="#333"/>
  <rect x="40" y="580" width="180" height="20" rx="4" fill="#333"/>
  
  <rect x="20" y="620" width="360" height="120" rx="12" fill="#1a1a1a"/>
  <rect x="40" y="640" width="320" height="15" rx="4" fill="#333"/>
  <rect x="40" y="665" width="300" height="15" rx="4" fill="#333"/>
  <rect x="40" y="690" width="280" height="15" rx="4" fill="#333"/>
  <rect x="40" y="715" width="200" height="15" rx="4" fill="#333"/>
  
  <circle cx="200" cy="760" r="30" fill="#333"/>
</svg>

