<svg xmlns="http://www.w3.org/2000/svg" viewBox="0 0 1200 800" class="w-full h-full">
  <defs>
    <linearGradient id="webGrad" x1="0%" y1="0%" x2="100%" y2="100%">
      <stop offset="0%" style="stop-color:#4facfe;stop-opacity:1" />
      <stop offset="100%" style="stop-color:#00f2fe;stop-opacity:1" />
    </linearGradient>
  </defs>
  <rect width="1200" height="800" fill="#f8f9fa"/>
  
  <rect x="0" y="0" width="1200" height="80" fill="white" stroke="#e0e0e0" stroke-width="2"/>
  <rect x="40" y="20" width="120" height="40" rx="4" fill="#4facfe"/>
  <rect x="200" y="30" width="80" height="20" rx="4" fill="#333"/>
  <rect x="300" y="30" width="80" height="20" rx="4" fill="#333"/>
  <rect x="400" y="30" width="80" height="20" rx="4" fill="#333"/>
  <rect x="500" y="30" width="80" height="20" rx="4" fill="#333"/>
  <rect x="1000" y="20" width="120" height="40" rx="20" fill="url(#webGrad)"/>
  
  <rect x="0" y="80" width="1200" height="400" fill="url(#webGrad)"/>
  <text x="600" y="280" font-family="Arial" font-size="48" font-weight="bold" fill="white" text-anchor="middle">Modern Web Design</text>
  <text x="600" y="330" font-family="Arial" font-size="24" fill="white" text-anchor="middle" opacity="0.9">Beautiful & Responsive</text>
  <rect x="500" y="360" width="200" height="50" rx="25" fill="white"/>
  <text x="600" y="390" font-family="Arial" font-size="18" fill="#4facfe" text-anchor="middle" font-weight="bold">Get Started</text>
  
  <rect x="40" y="500" width="360" height="200" rx="8" fill="white" stroke="#e0e0e0" stroke-width="1"/>
  <rect x="60" y="520" width="320" height="30" rx="4" fill="#f0f0f0"/>
  <rect x="60" y="570" width="320" height="20" rx="4" fill="#f0f0f0"/>
  <rect x="60" y="610" width="240" height="20" rx="4" fill="#f0f0f0"/>
  <rect x="60" y="650" width="280" height="20" rx="4" fill="#f0f0f0"/>
  
  <rect x="420" y="500" width="360" height="200" rx="8" fill="white" stroke="#e0e0e0" stroke-width="1"/>
  <rect x="440" y="520" width="320" height="30" rx="4" fill="#f0f0f0"/>
  <rect x="440" y="570" width="320" height="20" rx="4" fill="#f0f0f0"/>
  <rect x="440" y="610" width="280" height="20" rx="4" fill="#f0f0f0"/>
  <rect x="440" y="650" width="200" height="20" rx="4" fill="#f0f0f0"/>
  
  <rect x="800" y="500" width="360" height="200" rx="8" fill="white" stroke="#e0e0e0" stroke-width="1"/>
  <rect x="820" y="520" width="320" height="30" rx="4" fill="#f0f0f0"/>
  <rect x="820" y="570" width="320" height="20" rx="4" fill="#f0f0f0"/>
  <rect x="820" y="610" width="240" height="20" rx="4" fill="#f0f0f0"/>
  <rect x="820" y="650" width="300" height="20" rx="4" fill="#f0f0f0"/>
</svg>

