<svg xmlns="http://www.w3.org/2000/svg" viewBox="0 0 1000 600" class="w-full h-full">
  <defs>
    <marker id="arrowhead" markerWidth="10" markerHeight="10" refX="9" refY="3" orient="auto">
      <polygon points="0 0, 10 3, 0 6" fill="#667eea" />
    </marker>
  </defs>
  <rect width="1000" height="600" fill="#f8f9fa"/>
  
  <rect x="50" y="250" width="120" height="80" rx="8" fill="#667eea" stroke="#4a5568" stroke-width="2"/>
  <text x="110" y="295" font-family="Arial" font-size="14" fill="white" text-anchor="middle" font-weight="bold">Zoho CRM</text>
  
  <line x1="170" y1="290" x2="250" y2="290" stroke="#667eea" stroke-width="3" marker-end="url(#arrowhead)"/>
  
  <rect x="250" y="200" width="120" height="80" rx="8" fill="#48bb78" stroke="#2d3748" stroke-width="2"/>
  <text x="310" y="245" font-family="Arial" font-size="14" fill="white" text-anchor="middle" font-weight="bold">Automation</text>
  <text x="310" y="265" font-family="Arial" font-size="12" fill="white" text-anchor="middle">Engine</text>
  
  <line x1="370" y1="240" x2="450" y2="200" stroke="#667eea" stroke-width="3" marker-end="url(#arrowhead)"/>
  <line x1="370" y1="240" x2="450" y2="240" stroke="#667eea" stroke-width="3" marker-end="url(#arrowhead)"/>
  <line x1="370" y1="240" x2="450" y2="280" stroke="#667eea" stroke-width="3" marker-end="url(#arrowhead)"/>
  
  <rect x="450" y="100" width="120" height="80" rx="8" fill="#ed8936" stroke="#2d3748" stroke-width="2"/>
  <text x="510" y="145" font-family="Arial" font-size="14" fill="white" text-anchor="middle" font-weight="bold">GoHighLevel</text>
  
  <rect x="450" y="220" width="120" height="80" rx="8" fill="#9f7aea" stroke="#2d3748" stroke-width="2"/>
  <text x="510" y="265" font-family="Arial" font-size="14" fill="white" text-anchor="middle" font-weight="bold">WordPress</text>
  
  <rect x="450" y="340" width="120" height="80" rx="8" fill="#38b2ac" stroke="#2d3748" stroke-width="2"/>
  <text x="510" y="385" font-family="Arial" font-size="14" fill="white" text-anchor="middle" font-weight="bold">Brevo</text>
  
  <line x1="570" y1="140" x2="650" y2="140" stroke="#667eea" stroke-width="3" marker-end="url(#arrowhead)"/>
  <line x1="570" y1="260" x2="650" y2="260" stroke="#667eea" stroke-width="3" marker-end="url(#arrowhead)"/>
  <line x1="570" y1="380" x2="650" y2="380" stroke="#667eea" stroke-width="3" marker-end="url(#arrowhead)"/>
  
  <rect x="650" y="100" width="120" height="80" rx="8" fill="#e53e3e" stroke="#2d3748" stroke-width="2"/>
  <text x="710" y="145" font-family="Arial" font-size="14" fill="white" text-anchor="middle" font-weight="bold">Analytics</text>
  
  <rect x="650" y="220" width="120" height="80" rx="8" fill="#3182ce" stroke="#2d3748" stroke-width="2"/>
  <text x="710" y="265" font-family="Arial" font-size="14" fill="white" text-anchor="middle" font-weight="bold">Reports</text>
  
  <rect x="650" y="340" width="120" height="80" rx="8" fill="#805ad5" stroke="#2d3748" stroke-width="2"/>
  <text x="710" y="385" font-family="Arial" font-size="14" fill="white" text-anchor="middle" font-weight="bold">Notifications</text>
</svg>

